<svg xmlns="http://www.w3.org/2000/svg" xmlns:xlink="http://www.w3.org/1999/xlink" width="500" zoomAndPan="magnify" viewBox="0 0 375 374.999991" height="500" preserveAspectRatio="xMidYMid meet" version="1.0"><defs><g/><clipPath id="b0518ecba9"><path d="M 63.976562 206.894531 L 305.714844 206.894531 L 305.714844 234.582031 L 63.976562 234.582031 Z M 63.976562 206.894531 " clip-rule="nonzero"/></clipPath><clipPath id="990c617c78"><path d="M 77.824219 206.894531 L 291.792969 206.894531 C 295.464844 206.894531 298.984375 208.351562 301.582031 210.949219 C 304.179688 213.546875 305.636719 217.066406 305.636719 220.738281 C 305.636719 224.410156 304.179688 227.929688 301.582031 230.527344 C 298.984375 233.125 295.464844 234.582031 291.792969 234.582031 L 77.824219 234.582031 C 74.152344 234.582031 70.628906 233.125 68.03125 230.527344 C 65.4375 227.929688 63.976562 224.410156 63.976562 220.738281 C 63.976562 217.066406 65.4375 213.546875 68.03125 210.949219 C 70.628906 208.351562 74.152344 206.894531 77.824219 206.894531 Z M 77.824219 206.894531 " clip-rule="nonzero"/></clipPath></defs><path stroke-linecap="butt" transform="matrix(0.796661, 0, 0, 0.796661, 96.637455, -0.962274)" fill="none" stroke-linejoin="miter" d="M 100.766368 108.241567 C 96.07393 111.335536 91.857109 113.953887 88.115907 116.101523 C 84.369802 118.24916 80.800215 120.019243 77.407145 121.416678 C 76.907011 139.485262 76.485329 155.656277 76.132293 169.929723 C 75.78416 184.208072 75.48506 196.858533 75.234993 207.890911 C 74.984926 218.918386 74.788794 228.455264 74.636793 236.491739 C 74.489694 244.52331 74.362209 251.387901 74.264143 257.080608 C 73.965043 270.353785 73.862075 279.439562 73.965043 284.328131 C 73.862075 288.025204 73.464909 291.565371 72.76374 294.963344 C 72.16554 297.856279 71.219207 300.925731 69.919838 304.171702 C 68.625372 307.41277 66.825869 310.183123 64.531134 312.482761 C 70.518038 312.678892 76.132293 312.781861 81.373898 312.781861 C 86.615504 312.781861 91.631559 312.781861 96.422062 312.781861 C 110.102212 312.781861 121.379754 312.580826 130.264496 312.183661 C 139.149238 311.781592 146.234476 311.305974 151.525115 310.756806 C 156.815753 310.207639 160.561858 309.712408 162.758527 309.261306 C 164.955197 308.810205 166.249662 308.486588 166.651731 308.290457 C 161.361093 311.879657 156.967755 314.97853 153.471717 317.572365 C 149.980582 320.166199 146.862096 322.289319 144.11626 323.936821 C 141.370423 325.584323 138.67362 326.805239 136.030752 327.604474 C 133.382981 328.403708 130.313529 328.800874 126.822394 328.800874 L 103.762271 328.800874 C 97.27033 328.800874 90.234124 328.82539 82.648751 328.879327 C 75.063378 328.928359 67.826138 329.026425 60.93703 329.178427 C 54.047923 329.325525 47.884501 329.575592 42.441861 329.923725 C 37.004124 330.276761 33.135437 330.698443 30.840702 331.198578 C 33.635572 328.800874 36.180374 326.207039 38.475108 323.41217 C 40.769843 320.617301 42.745864 317.170296 44.388463 313.080961 C 46.035965 308.986723 47.310817 304.068733 48.208118 298.331897 C 49.105418 292.590157 49.556519 285.676533 49.556519 277.591026 L 49.556519 126.359183 C 46.46255 126.658283 42.716445 127.055449 38.32801 127.555584 C 33.934672 128.055718 28.943133 128.702951 23.353395 129.502185 C 28.742099 125.108847 33.611055 121.764811 37.950457 119.470076 C 42.294763 117.175341 46.011448 115.478807 49.105418 114.380472 C 52.699521 113.184072 55.896459 112.482903 58.691329 112.281869 C 62.182463 112.384838 66.051151 112.330901 70.297391 112.13477 C 74.538727 111.933736 78.628062 111.659152 82.575202 111.311019 C 86.517438 110.962887 90.136058 110.511785 93.431062 109.962618 C 96.721162 109.41345 99.167899 108.839767 100.766368 108.241567 Z M 166.651731 308.290457 L 166.651731 308.138455 C 166.749797 308.04039 166.847862 307.986454 166.950831 307.986454 Z M 166.651731 308.290457 " stroke="#ffffff" stroke-width="23.000025" stroke-opacity="1" stroke-miterlimit="4"/><g fill="#000000" fill-opacity="1"><g transform="translate(107.964975, 261.935765)"><g><path d="M 68.953125 -176.65625 C 65.210938 -174.195312 61.847656 -172.109375 58.859375 -170.390625 C 55.878906 -168.679688 53.039062 -167.273438 50.34375 -166.171875 C 49.9375 -151.773438 49.59375 -138.890625 49.3125 -127.515625 C 49.039062 -116.140625 48.804688 -106.054688 48.609375 -97.265625 C 48.410156 -88.484375 48.25 -80.890625 48.125 -74.484375 C 48.007812 -68.085938 47.910156 -62.625 47.828125 -58.09375 C 47.585938 -47.519531 47.507812 -40.28125 47.59375 -36.375 C 47.507812 -33.4375 47.191406 -30.613281 46.640625 -27.90625 C 46.160156 -25.601562 45.40625 -23.160156 44.375 -20.578125 C 43.34375 -17.992188 41.910156 -15.785156 40.078125 -13.953125 C 44.847656 -13.796875 49.320312 -13.71875 53.5 -13.71875 C 57.675781 -13.71875 61.671875 -13.71875 65.484375 -13.71875 C 76.378906 -13.71875 85.363281 -13.875 92.4375 -14.1875 C 99.519531 -14.507812 105.164062 -14.890625 109.375 -15.328125 C 113.59375 -15.765625 116.578125 -16.160156 118.328125 -16.515625 C 120.078125 -16.878906 121.113281 -17.140625 121.4375 -17.296875 C 117.21875 -14.429688 113.71875 -11.960938 110.9375 -9.890625 C 108.15625 -7.828125 105.671875 -6.140625 103.484375 -4.828125 C 101.296875 -3.515625 99.144531 -2.539062 97.03125 -1.90625 C 94.925781 -1.269531 92.484375 -0.953125 89.703125 -0.953125 L 71.328125 -0.953125 C 66.160156 -0.953125 60.554688 -0.929688 54.515625 -0.890625 C 48.472656 -0.847656 42.707031 -0.769531 37.21875 -0.65625 C 31.726562 -0.539062 26.816406 -0.34375 22.484375 -0.0625 C 18.148438 0.21875 15.066406 0.554688 13.234375 0.953125 C 15.460938 -0.953125 17.488281 -3.019531 19.3125 -5.25 C 21.144531 -7.476562 22.71875 -10.222656 24.03125 -13.484375 C 25.34375 -16.742188 26.359375 -20.660156 27.078125 -25.234375 C 27.796875 -29.804688 28.15625 -35.3125 28.15625 -41.75 L 28.15625 -162.234375 C 25.6875 -161.992188 22.703125 -161.671875 19.203125 -161.265625 C 15.703125 -160.867188 11.726562 -160.351562 7.28125 -159.71875 C 11.570312 -163.21875 15.445312 -165.878906 18.90625 -167.703125 C 22.363281 -169.535156 25.328125 -170.890625 27.796875 -171.765625 C 30.660156 -172.722656 33.203125 -173.28125 35.421875 -173.4375 C 38.210938 -173.363281 41.296875 -173.40625 44.671875 -173.5625 C 48.046875 -173.71875 51.304688 -173.9375 54.453125 -174.21875 C 57.597656 -174.5 60.476562 -174.859375 63.09375 -175.296875 C 65.71875 -175.734375 67.671875 -176.1875 68.953125 -176.65625 Z M 121.4375 -17.296875 L 121.4375 -17.421875 C 121.507812 -17.492188 121.585938 -17.53125 121.671875 -17.53125 Z M 121.4375 -17.296875 "/></g></g></g><path stroke-linecap="butt" transform="matrix(0.638842, 0, 0, 0.638842, 150.087489, 97.059054)" fill="none" stroke-linejoin="miter" d="M 218.618075 209.759765 C 218.618075 222.141779 216.545234 233.69221 212.399552 244.423289 C 208.259985 255.154367 202.66515 264.986604 195.633389 273.926112 C 188.595513 282.859505 180.383639 290.796223 170.997767 297.730151 C 161.61801 304.670193 151.657367 310.53407 141.12807 315.327897 C 130.592658 320.115609 119.812662 323.759896 108.78197 326.254642 C 97.751277 328.749388 87.044657 330.002876 76.662109 330.002876 C 75.665433 330.10071 73.84329 330.149626 71.201794 330.149626 C 68.554183 330.149626 65.484666 330.174084 61.993244 330.223001 C 58.495707 330.271918 54.704671 330.30249 50.607906 330.30249 C 46.517256 330.30249 42.524438 330.30249 38.629454 330.30249 C 34.740585 330.30249 31.096298 330.271918 27.702709 330.223001 C 24.30912 330.174084 21.51476 330.10071 19.313513 330.002876 C 21.013365 330.002876 22.511435 329.550398 23.807725 328.651555 C 25.104015 327.752713 26.229097 326.554256 27.176856 325.056185 C 28.124615 323.564229 28.925624 321.839919 29.573769 319.895484 C 30.221914 317.944935 30.796684 315.976042 31.291965 313.976576 C 32.294755 309.188864 32.893983 303.795809 33.08965 297.809641 C 33.08965 290.41712 33.193597 279.441458 33.389264 264.864312 C 33.493211 258.676363 33.591045 251.363331 33.688878 242.931333 C 33.792826 234.49322 33.939575 224.807733 34.141356 213.880988 C 34.337023 202.948129 34.563262 190.645604 34.81396 176.967301 C 35.064657 163.295112 35.339813 148.069821 35.639427 131.297543 C 31.243048 131.798938 26.877242 132.171927 22.535894 132.422624 C 18.194546 132.673322 13.626958 132.69778 8.833132 132.495999 L 36.837884 114.0789 C 41.429929 114.678129 46.168725 115.075576 51.060385 115.277357 C 55.952044 115.479138 60.794787 115.576971 65.582499 115.576971 C 74.369143 115.576971 82.477069 115.22844 89.918507 114.531379 C 97.35383 113.828203 104.715778 113.479672 112.004351 113.479672 C 118.589747 113.479672 125.804946 114.005525 133.637716 115.051118 C 141.476601 116.102824 149.339944 117.998343 157.22163 120.743787 C 165.109432 123.489231 172.746536 127.157975 180.132942 131.750021 C 187.519348 136.342067 194.055828 142.205944 199.748497 149.341652 C 205.441166 156.483476 210.002639 165.013307 213.451259 174.949491 C 216.893765 184.879561 218.618075 196.485023 218.618075 209.759765 Z M 58.24501 288.674466 C 57.945396 291.768441 57.297251 294.764582 56.300575 297.656776 C 55.499566 300.151523 54.331682 302.799133 52.784695 305.593494 C 51.237707 308.387855 49.164866 310.784768 46.566172 312.778119 C 60.446257 313.481295 71.874397 313.927659 80.856707 314.12944 C 89.839017 314.325107 97.029757 314.429055 102.416697 314.429055 C 116.192834 314.429055 128.574848 311.958766 139.556624 307.01819 C 150.532286 302.071499 159.844783 295.388269 167.481887 286.950156 C 175.118991 278.518157 180.958409 268.71038 185.000143 257.526822 C 189.041877 246.34938 191.065801 234.517678 191.065801 222.037831 C 191.065801 209.759765 189.439324 198.857478 186.1986 189.324856 C 182.951761 179.792234 178.634871 171.451955 173.247931 164.316246 C 167.854876 157.180537 161.715843 151.163796 154.824717 146.272136 C 147.939706 141.380476 140.877372 137.412117 133.637716 134.367059 C 126.404174 131.322001 119.237892 129.126869 112.1511 127.781662 C 105.064308 126.436456 98.674578 125.757738 92.988023 125.757738 C 87.099688 125.757738 81.6088 125.959519 76.515359 126.356966 C 71.421918 126.760528 66.481342 127.255809 61.69363 127.855037 C 61.394016 146.021438 61.11886 162.218947 60.868162 176.447562 C 60.617465 190.670063 60.391226 203.247743 60.195559 214.180602 C 59.993778 225.107347 59.791997 234.542136 59.596331 242.478854 C 59.39455 250.415572 59.2478 257.129375 59.143852 262.620263 C 58.746405 275.497557 58.446791 284.180254 58.24501 288.674466 Z M 58.24501 288.674466 " stroke="#ffffff" stroke-width="23.000025" stroke-opacity="1" stroke-miterlimit="4"/><g fill="#000000" fill-opacity="1"><g transform="translate(150.087489, 307.877069)"><g><path d="M 139.65625 -76.8125 C 139.65625 -68.90625 138.332031 -61.523438 135.6875 -54.671875 C 133.039062 -47.816406 129.46875 -41.535156 124.96875 -35.828125 C 120.476562 -30.117188 115.234375 -25.046875 109.234375 -20.609375 C 103.242188 -16.179688 96.882812 -12.4375 90.15625 -9.375 C 83.425781 -6.3125 76.535156 -3.984375 69.484375 -2.390625 C 62.441406 -0.796875 55.609375 0 48.984375 0 C 48.335938 0.0625 47.171875 0.09375 45.484375 0.09375 C 43.796875 0.09375 41.832031 0.109375 39.59375 0.140625 C 37.363281 0.171875 34.941406 0.1875 32.328125 0.1875 C 29.710938 0.1875 27.160156 0.1875 24.671875 0.1875 C 22.191406 0.1875 19.863281 0.171875 17.6875 0.140625 C 15.519531 0.109375 13.738281 0.0625 12.34375 0 C 13.425781 0 14.378906 -0.285156 15.203125 -0.859375 C 16.035156 -1.429688 16.753906 -2.195312 17.359375 -3.15625 C 17.960938 -4.113281 18.472656 -5.210938 18.890625 -6.453125 C 19.304688 -7.703125 19.675781 -8.960938 20 -10.234375 C 20.632812 -13.296875 21.015625 -16.738281 21.140625 -20.5625 C 21.140625 -25.28125 21.203125 -32.296875 21.328125 -41.609375 C 21.390625 -45.566406 21.453125 -50.238281 21.515625 -55.625 C 21.585938 -61.007812 21.6875 -67.191406 21.8125 -74.171875 C 21.9375 -81.160156 22.078125 -89.019531 22.234375 -97.75 C 22.398438 -106.488281 22.578125 -116.21875 22.765625 -126.9375 C 19.960938 -126.613281 17.171875 -126.375 14.390625 -126.21875 C 11.617188 -126.0625 8.703125 -126.046875 5.640625 -126.171875 L 23.53125 -137.9375 C 26.46875 -137.550781 29.5 -137.296875 32.625 -137.171875 C 35.75 -137.046875 38.835938 -136.984375 41.890625 -136.984375 C 47.503906 -136.984375 52.6875 -137.207031 57.4375 -137.65625 C 62.1875 -138.101562 66.890625 -138.328125 71.546875 -138.328125 C 75.753906 -138.328125 80.363281 -137.988281 85.375 -137.3125 C 90.382812 -136.644531 95.40625 -135.429688 100.4375 -133.671875 C 105.476562 -131.921875 110.359375 -129.578125 115.078125 -126.640625 C 119.796875 -123.710938 123.972656 -119.96875 127.609375 -115.40625 C 131.242188 -110.851562 134.160156 -105.398438 136.359375 -99.046875 C 138.554688 -92.703125 139.65625 -85.289062 139.65625 -76.8125 Z M 37.203125 -26.40625 C 37.015625 -24.425781 36.601562 -22.507812 35.96875 -20.65625 C 35.457031 -19.0625 34.707031 -17.367188 33.71875 -15.578125 C 32.726562 -13.796875 31.40625 -12.269531 29.75 -11 C 38.613281 -10.550781 45.914062 -10.265625 51.65625 -10.140625 C 57.394531 -10.015625 61.984375 -9.953125 65.421875 -9.953125 C 74.222656 -9.953125 82.128906 -11.53125 89.140625 -14.6875 C 96.160156 -17.84375 102.109375 -22.113281 106.984375 -27.5 C 111.867188 -32.882812 115.601562 -39.148438 118.1875 -46.296875 C 120.769531 -53.441406 122.0625 -61 122.0625 -68.96875 C 122.0625 -76.8125 121.023438 -83.773438 118.953125 -89.859375 C 116.878906 -95.953125 114.117188 -101.28125 110.671875 -105.84375 C 107.234375 -110.40625 103.3125 -114.25 98.90625 -117.375 C 94.507812 -120.5 90 -123.03125 85.375 -124.96875 C 80.75 -126.914062 76.171875 -128.320312 71.640625 -129.1875 C 67.117188 -130.050781 63.039062 -130.484375 59.40625 -130.484375 C 55.644531 -130.484375 52.132812 -130.351562 48.875 -130.09375 C 45.625 -129.84375 42.46875 -129.523438 39.40625 -129.140625 C 39.21875 -117.535156 39.039062 -107.1875 38.875 -98.09375 C 38.71875 -89.007812 38.578125 -80.972656 38.453125 -73.984375 C 38.328125 -67.003906 38.195312 -60.976562 38.0625 -55.90625 C 37.9375 -50.84375 37.84375 -46.554688 37.78125 -43.046875 C 37.53125 -34.816406 37.335938 -29.269531 37.203125 -26.40625 Z M 37.203125 -26.40625 "/></g></g></g><g clip-path="url(#b0518ecba9)"><g clip-path="url(#990c617c78)"><path fill="#ffffff" d="M 63.976562 206.894531 L 305.605469 206.894531 L 305.605469 234.582031 L 63.976562 234.582031 Z M 63.976562 206.894531 " fill-opacity="1" fill-rule="nonzero"/></g></g><g fill="#000000" fill-opacity="1"><g transform="translate(83.330471, 227.709646)"><g><path d="M 6.171875 -15.8125 C 5.835938 -15.59375 5.535156 -15.40625 5.265625 -15.25 C 4.992188 -15.09375 4.738281 -14.96875 4.5 -14.875 C 4.46875 -13.582031 4.4375 -12.425781 4.40625 -11.40625 C 4.382812 -10.394531 4.363281 -9.492188 4.34375 -8.703125 C 4.332031 -7.921875 4.320312 -7.242188 4.3125 -6.671875 C 4.300781 -6.097656 4.289062 -5.609375 4.28125 -5.203125 C 4.257812 -4.253906 4.253906 -3.601562 4.265625 -3.25 C 4.253906 -2.988281 4.222656 -2.738281 4.171875 -2.5 C 4.128906 -2.289062 4.0625 -2.070312 3.96875 -1.84375 C 3.875 -1.613281 3.75 -1.414062 3.59375 -1.25 C 4.019531 -1.238281 4.414062 -1.234375 4.78125 -1.234375 C 5.15625 -1.234375 5.515625 -1.234375 5.859375 -1.234375 C 6.835938 -1.234375 7.640625 -1.242188 8.265625 -1.265625 C 8.898438 -1.296875 9.40625 -1.332031 9.78125 -1.375 C 10.164062 -1.414062 10.4375 -1.453125 10.59375 -1.484375 C 10.75 -1.515625 10.835938 -1.535156 10.859375 -1.546875 C 10.484375 -1.285156 10.171875 -1.0625 9.921875 -0.875 C 9.671875 -0.695312 9.445312 -0.546875 9.25 -0.421875 C 9.0625 -0.304688 8.875 -0.21875 8.6875 -0.15625 C 8.5 -0.101562 8.28125 -0.078125 8.03125 -0.078125 L 6.375 -0.078125 C 5.914062 -0.078125 5.414062 -0.078125 4.875 -0.078125 C 4.332031 -0.078125 3.816406 -0.0703125 3.328125 -0.0625 C 2.835938 -0.0507812 2.398438 -0.03125 2.015625 0 C 1.628906 0.0195312 1.351562 0.046875 1.1875 0.078125 C 1.382812 -0.0859375 1.5625 -0.269531 1.71875 -0.46875 C 1.882812 -0.664062 2.023438 -0.910156 2.140625 -1.203125 C 2.265625 -1.492188 2.359375 -1.84375 2.421875 -2.25 C 2.484375 -2.664062 2.515625 -3.160156 2.515625 -3.734375 L 2.515625 -14.515625 C 2.296875 -14.492188 2.03125 -14.460938 1.71875 -14.421875 C 1.40625 -14.390625 1.050781 -14.347656 0.65625 -14.296875 C 1.039062 -14.609375 1.382812 -14.84375 1.6875 -15 C 2 -15.164062 2.265625 -15.289062 2.484375 -15.375 C 2.742188 -15.457031 2.972656 -15.503906 3.171875 -15.515625 C 3.421875 -15.515625 3.695312 -15.519531 4 -15.53125 C 4.300781 -15.539062 4.59375 -15.554688 4.875 -15.578125 C 5.15625 -15.609375 5.410156 -15.644531 5.640625 -15.6875 C 5.878906 -15.726562 6.054688 -15.769531 6.171875 -15.8125 Z M 10.859375 -1.546875 L 10.859375 -1.5625 C 10.867188 -1.5625 10.878906 -1.5625 10.890625 -1.5625 Z M 10.859375 -1.546875 "/></g></g></g><g fill="#000000" fill-opacity="1"><g transform="translate(95.356992, 227.709646)"><g><path d="M 9.375 -8.375 C 9.3125 -8.34375 9.21875 -8.285156 9.09375 -8.203125 C 8.976562 -8.128906 8.816406 -8.023438 8.609375 -7.890625 C 8.398438 -7.753906 8.125 -7.566406 7.78125 -7.328125 C 7.832031 -7.429688 7.828125 -7.507812 7.765625 -7.5625 C 7.710938 -7.625 7.632812 -7.664062 7.53125 -7.6875 C 7.414062 -7.71875 7.273438 -7.726562 7.109375 -7.71875 C 6.847656 -7.695312 6.476562 -7.671875 6 -7.640625 C 5.519531 -7.609375 4.976562 -7.582031 4.375 -7.5625 C 4.375 -6.425781 4.363281 -5.5 4.34375 -4.78125 C 4.332031 -4.070312 4.328125 -3.515625 4.328125 -3.109375 C 4.304688 -2.640625 4.289062 -2.296875 4.28125 -2.078125 C 4.269531 -1.941406 4.226562 -1.804688 4.15625 -1.671875 C 4.09375 -1.546875 4 -1.414062 3.875 -1.28125 C 3.75 -1.144531 3.578125 -1.023438 3.359375 -0.921875 L 8.203125 -0.921875 C 8.421875 -0.921875 8.648438 -0.929688 8.890625 -0.953125 C 9.085938 -0.984375 9.300781 -1.019531 9.53125 -1.0625 C 9.757812 -1.113281 9.976562 -1.191406 10.1875 -1.296875 C 9.832031 -0.960938 9.476562 -0.703125 9.125 -0.515625 C 8.78125 -0.335938 8.460938 -0.210938 8.171875 -0.140625 C 7.828125 -0.046875 7.5 0.00390625 7.1875 0.015625 C 6.488281 0.015625 5.832031 0.0195312 5.21875 0.03125 C 4.601562 0.0390625 4.046875 0.0546875 3.546875 0.078125 C 3.046875 0.0976562 2.617188 0.125 2.265625 0.15625 C 1.910156 0.1875 1.65625 0.222656 1.5 0.265625 C 1.71875 0.046875 1.890625 -0.164062 2.015625 -0.375 C 2.140625 -0.59375 2.234375 -0.832031 2.296875 -1.09375 C 2.367188 -1.363281 2.410156 -1.660156 2.421875 -1.984375 C 2.441406 -2.316406 2.445312 -2.710938 2.4375 -3.171875 L 2.4375 -7.546875 C 2.238281 -7.546875 2.039062 -7.546875 1.84375 -7.546875 C 1.644531 -7.554688 1.453125 -7.570312 1.265625 -7.59375 L 2.4375 -8.203125 C 2.4375 -8.585938 2.4375 -8.988281 2.4375 -9.40625 C 2.4375 -9.832031 2.4375 -10.285156 2.4375 -10.765625 C 2.4375 -11.253906 2.429688 -11.773438 2.421875 -12.328125 C 2.421875 -12.890625 2.421875 -13.5 2.421875 -14.15625 C 2.097656 -14.15625 1.796875 -14.160156 1.515625 -14.171875 C 1.234375 -14.179688 0.96875 -14.191406 0.71875 -14.203125 L 2.71875 -15.265625 C 4.0625 -15.265625 5.210938 -15.269531 6.171875 -15.28125 C 7.128906 -15.300781 7.921875 -15.320312 8.546875 -15.34375 C 9.273438 -15.375 9.878906 -15.40625 10.359375 -15.4375 C 10.609375 -15.4375 10.769531 -15.414062 10.84375 -15.375 C 10.925781 -15.332031 10.957031 -15.285156 10.9375 -15.234375 C 10.925781 -15.191406 10.882812 -15.144531 10.8125 -15.09375 C 10.738281 -15.050781 10.675781 -15.019531 10.625 -15 C 10.5625 -14.96875 10.453125 -14.90625 10.296875 -14.8125 C 10.160156 -14.738281 9.96875 -14.617188 9.71875 -14.453125 C 9.476562 -14.285156 9.144531 -14.054688 8.71875 -13.765625 C 8.863281 -13.921875 8.925781 -14.035156 8.90625 -14.109375 C 8.882812 -14.191406 8.832031 -14.25 8.75 -14.28125 C 8.65625 -14.3125 8.53125 -14.328125 8.375 -14.328125 C 8.238281 -14.316406 8.035156 -14.304688 7.765625 -14.296875 C 7.492188 -14.285156 7.175781 -14.269531 6.8125 -14.25 C 6.457031 -14.238281 6.066406 -14.226562 5.640625 -14.21875 C 5.222656 -14.207031 4.796875 -14.195312 4.359375 -14.1875 C 4.359375 -13.050781 4.359375 -12.03125 4.359375 -11.125 C 4.367188 -10.21875 4.375 -9.390625 4.375 -8.640625 C 5.101562 -8.640625 5.753906 -8.648438 6.328125 -8.671875 C 6.910156 -8.691406 7.410156 -8.710938 7.828125 -8.734375 C 8.304688 -8.765625 8.734375 -8.789062 9.109375 -8.8125 C 9.347656 -8.8125 9.503906 -8.789062 9.578125 -8.75 C 9.660156 -8.71875 9.691406 -8.675781 9.671875 -8.625 C 9.660156 -8.582031 9.617188 -8.535156 9.546875 -8.484375 C 9.484375 -8.429688 9.425781 -8.394531 9.375 -8.375 Z M 9.375 -8.375 "/></g></g></g><g fill="#000000" fill-opacity="1"><g transform="translate(108.173459, 227.709646)"><g><path d="M 16.015625 -8.28125 C 16.015625 -7.375 15.863281 -6.535156 15.5625 -5.765625 C 15.269531 -5.003906 14.878906 -4.304688 14.390625 -3.671875 C 13.898438 -3.035156 13.335938 -2.472656 12.703125 -1.984375 C 12.078125 -1.503906 11.429688 -1.097656 10.765625 -0.765625 C 10.109375 -0.429688 9.460938 -0.175781 8.828125 0 C 8.203125 0.164062 7.632812 0.25 7.125 0.25 C 6.695312 0.25 6.242188 0.179688 5.765625 0.046875 C 5.296875 -0.0859375 4.828125 -0.28125 4.359375 -0.53125 C 3.890625 -0.789062 3.441406 -1.113281 3.015625 -1.5 C 2.585938 -1.894531 2.210938 -2.347656 1.890625 -2.859375 C 1.566406 -3.367188 1.304688 -3.9375 1.109375 -4.5625 C 0.921875 -5.1875 0.828125 -5.875 0.828125 -6.625 C 0.828125 -7.625 0.96875 -8.535156 1.25 -9.359375 C 1.53125 -10.179688 1.898438 -10.921875 2.359375 -11.578125 C 2.816406 -12.242188 3.335938 -12.820312 3.921875 -13.3125 C 4.503906 -13.800781 5.101562 -14.207031 5.71875 -14.53125 C 6.34375 -14.851562 6.953125 -15.09375 7.546875 -15.25 C 8.140625 -15.414062 8.675781 -15.5 9.15625 -15.5 C 9.664062 -15.5 10.1875 -15.441406 10.71875 -15.328125 C 11.25 -15.222656 11.769531 -15.050781 12.28125 -14.8125 C 12.789062 -14.582031 13.269531 -14.28125 13.71875 -13.90625 C 14.175781 -13.539062 14.570312 -13.085938 14.90625 -12.546875 C 15.25 -12.015625 15.519531 -11.394531 15.71875 -10.6875 C 15.914062 -9.976562 16.015625 -9.175781 16.015625 -8.28125 Z M 14.078125 -7.625 C 14.078125 -8.414062 13.976562 -9.128906 13.78125 -9.765625 C 13.59375 -10.398438 13.335938 -10.960938 13.015625 -11.453125 C 12.691406 -11.953125 12.316406 -12.378906 11.890625 -12.734375 C 11.472656 -13.097656 11.035156 -13.394531 10.578125 -13.625 C 10.117188 -13.863281 9.648438 -14.035156 9.171875 -14.140625 C 8.703125 -14.253906 8.257812 -14.3125 7.84375 -14.3125 C 7.175781 -14.3125 6.53125 -14.1875 5.90625 -13.9375 C 5.28125 -13.6875 4.722656 -13.289062 4.234375 -12.75 C 3.742188 -12.207031 3.351562 -11.515625 3.0625 -10.671875 C 2.769531 -9.828125 2.625 -8.8125 2.625 -7.625 C 2.625 -6.84375 2.738281 -6.132812 2.96875 -5.5 C 3.195312 -4.875 3.492188 -4.320312 3.859375 -3.84375 C 4.234375 -3.363281 4.648438 -2.953125 5.109375 -2.609375 C 5.578125 -2.273438 6.050781 -2 6.53125 -1.78125 C 7.019531 -1.570312 7.488281 -1.414062 7.9375 -1.3125 C 8.382812 -1.207031 8.773438 -1.15625 9.109375 -1.15625 C 9.441406 -1.15625 9.796875 -1.207031 10.171875 -1.3125 C 10.546875 -1.414062 10.914062 -1.570312 11.28125 -1.78125 C 11.65625 -2 12.007812 -2.28125 12.34375 -2.625 C 12.675781 -2.96875 12.972656 -3.375 13.234375 -3.84375 C 13.492188 -4.320312 13.695312 -4.875 13.84375 -5.5 C 14 -6.132812 14.078125 -6.84375 14.078125 -7.625 Z M 14.078125 -7.625 "/></g></g></g><g fill="#000000" fill-opacity="1"><g transform="translate(126.647647, 227.709646)"><g><path d="M 3.078125 -1.96875 C 3.066406 -1.90625 3.035156 -1.828125 2.984375 -1.734375 C 2.941406 -1.660156 2.878906 -1.5625 2.796875 -1.4375 C 2.722656 -1.320312 2.617188 -1.1875 2.484375 -1.03125 C 2.691406 -0.976562 2.898438 -0.945312 3.109375 -0.9375 C 3.316406 -0.925781 3.507812 -0.921875 3.6875 -0.921875 C 4.050781 -0.921875 4.34375 -0.929688 4.5625 -0.953125 C 4.789062 -0.984375 4.925781 -1.007812 4.96875 -1.03125 C 4.632812 -0.875 4.351562 -0.726562 4.125 -0.59375 C 3.90625 -0.457031 3.679688 -0.335938 3.453125 -0.234375 C 3.222656 -0.128906 2.957031 -0.046875 2.65625 0.015625 C 2.363281 0.0859375 1.972656 0.132812 1.484375 0.15625 C 1.515625 0.132812 1.5625 0.078125 1.625 -0.015625 L 1.421875 0.15625 C 1.316406 0.164062 1.210938 0.171875 1.109375 0.171875 C 1.003906 0.171875 0.898438 0.171875 0.796875 0.171875 L 1.765625 -0.5625 C 1.796875 -0.738281 1.828125 -0.929688 1.859375 -1.140625 C 1.890625 -1.359375 1.914062 -1.582031 1.9375 -1.8125 C 1.957031 -2.050781 1.976562 -2.289062 2 -2.53125 C 2.019531 -2.769531 2.035156 -3.003906 2.046875 -3.234375 C 2.085938 -3.765625 2.117188 -4.304688 2.140625 -4.859375 C 2.179688 -6.472656 2.207031 -8.0625 2.21875 -9.625 C 2.238281 -11.1875 2.25 -12.753906 2.25 -14.328125 L 3.4375 -16.25 C 3.476562 -15.5625 3.609375 -14.898438 3.828125 -14.265625 C 4.046875 -13.640625 4.332031 -13.023438 4.6875 -12.421875 C 5.050781 -11.828125 5.457031 -11.253906 5.90625 -10.703125 C 6.363281 -10.160156 6.847656 -9.625 7.359375 -9.09375 C 7.878906 -8.5625 8.40625 -8.039062 8.9375 -7.53125 C 9.46875 -7.03125 9.984375 -6.535156 10.484375 -6.046875 C 10.992188 -5.554688 11.472656 -5.066406 11.921875 -4.578125 C 12.378906 -4.085938 12.78125 -3.597656 13.125 -3.109375 C 13.226562 -4.648438 13.296875 -6.15625 13.328125 -7.625 C 13.359375 -9.09375 13.375 -10.554688 13.375 -12.015625 C 13.375 -12.671875 13.351562 -13.1875 13.3125 -13.5625 C 13.28125 -13.9375 13.226562 -14.25 13.15625 -14.5 C 13.070312 -14.476562 12.984375 -14.46875 12.890625 -14.46875 C 12.796875 -14.46875 12.695312 -14.46875 12.59375 -14.46875 C 12.34375 -14.46875 12.101562 -14.460938 11.875 -14.453125 C 11.644531 -14.441406 11.453125 -14.398438 11.296875 -14.328125 C 11.566406 -14.515625 11.828125 -14.6875 12.078125 -14.84375 C 12.328125 -15 12.578125 -15.128906 12.828125 -15.234375 C 13.078125 -15.347656 13.332031 -15.4375 13.59375 -15.5 C 13.851562 -15.570312 14.132812 -15.609375 14.4375 -15.609375 C 14.59375 -15.609375 14.769531 -15.601562 14.96875 -15.59375 C 15.175781 -15.582031 15.398438 -15.554688 15.640625 -15.515625 C 15.453125 -15.398438 15.269531 -15.289062 15.09375 -15.1875 C 14.925781 -15.09375 14.757812 -15.007812 14.59375 -14.9375 C 14.582031 -12.757812 14.519531 -10.617188 14.40625 -8.515625 C 14.300781 -6.410156 14.195312 -4.304688 14.09375 -2.203125 C 13.664062 -1.503906 13.359375 -0.929688 13.171875 -0.484375 C 12.984375 -0.0351562 12.875 0.234375 12.84375 0.328125 L 12.84375 0.375 C 12.519531 -0.363281 12.117188 -1.050781 11.640625 -1.6875 C 11.171875 -2.332031 10.648438 -2.945312 10.078125 -3.53125 C 9.515625 -4.113281 8.925781 -4.679688 8.3125 -5.234375 C 7.695312 -5.796875 7.09375 -6.363281 6.5 -6.9375 C 5.914062 -7.519531 5.359375 -8.125 4.828125 -8.75 C 4.296875 -9.382812 3.832031 -10.066406 3.4375 -10.796875 C 3.425781 -10.179688 3.414062 -9.5625 3.40625 -8.9375 C 3.394531 -8.320312 3.378906 -7.71875 3.359375 -7.125 C 3.347656 -6.539062 3.332031 -5.976562 3.3125 -5.4375 C 3.289062 -4.894531 3.269531 -4.398438 3.25 -3.953125 C 3.226562 -3.503906 3.203125 -3.109375 3.171875 -2.765625 C 3.140625 -2.421875 3.109375 -2.15625 3.078125 -1.96875 Z M 1.484375 0.15625 C 1.472656 0.164062 1.453125 0.171875 1.421875 0.171875 L 1.421875 0.15625 Z M 1.484375 0.15625 "/></g></g></g><g fill="#000000" fill-opacity="1"><g transform="translate(144.705514, 227.709646)"><g><path d="M 4.265625 -1.109375 C 3.878906 -0.898438 3.515625 -0.722656 3.171875 -0.578125 C 2.828125 -0.429688 2.503906 -0.316406 2.203125 -0.234375 C 1.910156 -0.148438 1.644531 -0.0859375 1.40625 -0.046875 C 1.164062 -0.015625 0.960938 0 0.796875 0 L -0.8125 0 L 0.359375 -0.65625 C 0.472656 -0.8125 0.585938 -0.96875 0.703125 -1.125 C 0.816406 -1.28125 0.914062 -1.425781 1 -1.5625 C 1.082031 -1.707031 1.164062 -1.851562 1.25 -2 C 1.46875 -2.445312 1.796875 -3.175781 2.234375 -4.1875 C 2.410156 -4.613281 2.617188 -5.117188 2.859375 -5.703125 C 3.109375 -6.296875 3.390625 -6.984375 3.703125 -7.765625 C 4.023438 -8.546875 4.382812 -9.4375 4.78125 -10.4375 C 5.175781 -11.4375 5.613281 -12.554688 6.09375 -13.796875 L 7.953125 -15.5 L 12.140625 -1.3125 C 12.429688 -1.238281 12.710938 -1.1875 12.984375 -1.15625 C 13.265625 -1.132812 13.523438 -1.125 13.765625 -1.125 C 13.898438 -1.125 14.019531 -1.125 14.125 -1.125 C 14.226562 -1.132812 14.320312 -1.144531 14.40625 -1.15625 C 14.488281 -1.15625 14.566406 -1.164062 14.640625 -1.1875 C 14.234375 -0.988281 13.875 -0.816406 13.5625 -0.671875 C 13.257812 -0.523438 12.988281 -0.398438 12.75 -0.296875 C 12.507812 -0.203125 12.285156 -0.128906 12.078125 -0.078125 C 11.878906 -0.0234375 11.675781 0 11.46875 0 L 9.765625 0 L 10.328125 -0.359375 L 8.609375 -6.015625 C 8.398438 -5.953125 8.160156 -5.894531 7.890625 -5.84375 C 7.628906 -5.789062 7.3125 -5.742188 6.9375 -5.703125 C 6.5625 -5.660156 6.125 -5.617188 5.625 -5.578125 C 5.132812 -5.546875 4.566406 -5.515625 3.921875 -5.484375 C 3.617188 -4.847656 3.34375 -4.285156 3.09375 -3.796875 C 2.84375 -3.304688 2.617188 -2.878906 2.421875 -2.515625 C 2.222656 -2.148438 2.046875 -1.84375 1.890625 -1.59375 C 1.742188 -1.351562 1.613281 -1.15625 1.5 -1 C 1.625 -0.976562 1.757812 -0.960938 1.90625 -0.953125 C 2.0625 -0.941406 2.210938 -0.9375 2.359375 -0.9375 C 2.585938 -0.9375 2.8125 -0.945312 3.03125 -0.96875 C 3.257812 -0.988281 3.46875 -1.007812 3.65625 -1.03125 C 3.863281 -1.050781 4.066406 -1.078125 4.265625 -1.109375 Z M 5.75 -6.75 C 6.707031 -6.75 7.582031 -6.773438 8.375 -6.828125 L 6.734375 -12.25 C 6.296875 -11.113281 5.890625 -10.097656 5.515625 -9.203125 C 5.148438 -8.316406 4.804688 -7.5 4.484375 -6.75 Z M 5.75 -6.75 "/></g></g></g><g fill="#000000" fill-opacity="1"><g transform="translate(160.318817, 227.709646)"><g><path d="M 11.390625 -11.453125 C 11.328125 -10.921875 11.179688 -10.453125 10.953125 -10.046875 C 10.734375 -9.648438 10.460938 -9.296875 10.140625 -8.984375 C 9.816406 -8.679688 9.472656 -8.421875 9.109375 -8.203125 C 8.742188 -7.992188 8.394531 -7.816406 8.0625 -7.671875 C 8.695312 -6.992188 9.265625 -6.390625 9.765625 -5.859375 C 10.265625 -5.335938 10.707031 -4.875 11.09375 -4.46875 C 11.488281 -4.0625 11.828125 -3.710938 12.109375 -3.421875 C 12.398438 -3.128906 12.648438 -2.878906 12.859375 -2.671875 C 13.347656 -2.203125 13.6875 -1.890625 13.875 -1.734375 C 14.070312 -1.578125 14.285156 -1.46875 14.515625 -1.40625 C 14.753906 -1.34375 14.984375 -1.3125 15.203125 -1.3125 C 15.390625 -1.3125 15.566406 -1.328125 15.734375 -1.359375 C 15.910156 -1.398438 16.050781 -1.441406 16.15625 -1.484375 C 15.8125 -1.253906 15.507812 -1.046875 15.25 -0.859375 C 14.988281 -0.679688 14.75 -0.523438 14.53125 -0.390625 C 14.3125 -0.253906 14.101562 -0.148438 13.90625 -0.078125 C 13.71875 -0.015625 13.519531 0.015625 13.3125 0.015625 C 13.164062 0.015625 13.023438 -0.00390625 12.890625 -0.046875 C 12.753906 -0.0859375 12.609375 -0.15625 12.453125 -0.25 C 12.296875 -0.34375 12.128906 -0.457031 11.953125 -0.59375 C 11.785156 -0.738281 11.597656 -0.910156 11.390625 -1.109375 C 11.253906 -1.242188 11.050781 -1.460938 10.78125 -1.765625 C 10.507812 -2.066406 10.207031 -2.40625 9.875 -2.78125 C 9.539062 -3.15625 9.191406 -3.546875 8.828125 -3.953125 C 8.460938 -4.359375 8.117188 -4.734375 7.796875 -5.078125 C 7.484375 -5.421875 7.203125 -5.71875 6.953125 -5.96875 C 6.703125 -6.21875 6.535156 -6.367188 6.453125 -6.421875 C 6.335938 -6.484375 6.222656 -6.539062 6.109375 -6.59375 C 6.003906 -6.632812 5.882812 -6.671875 5.75 -6.703125 C 5.625 -6.734375 5.5 -6.742188 5.375 -6.734375 L 6.921875 -7.796875 C 7.273438 -7.796875 7.613281 -7.878906 7.9375 -8.046875 C 8.269531 -8.210938 8.550781 -8.453125 8.78125 -8.765625 C 9.019531 -9.085938 9.207031 -9.472656 9.34375 -9.921875 C 9.476562 -10.378906 9.535156 -10.894531 9.515625 -11.46875 C 9.492188 -11.8125 9.414062 -12.125 9.28125 -12.40625 C 9.144531 -12.6875 8.96875 -12.9375 8.75 -13.15625 C 8.53125 -13.375 8.28125 -13.566406 8 -13.734375 C 7.726562 -13.898438 7.445312 -14.035156 7.15625 -14.140625 C 6.863281 -14.253906 6.570312 -14.335938 6.28125 -14.390625 C 5.988281 -14.441406 5.722656 -14.46875 5.484375 -14.46875 C 5.316406 -14.46875 5.140625 -14.460938 4.953125 -14.453125 C 4.765625 -14.453125 4.570312 -14.453125 4.375 -14.453125 C 4.351562 -13.117188 4.328125 -11.925781 4.296875 -10.875 C 4.273438 -9.832031 4.253906 -8.90625 4.234375 -8.09375 C 4.210938 -7.289062 4.191406 -6.59375 4.171875 -6 C 4.160156 -5.414062 4.144531 -4.914062 4.125 -4.5 C 4.082031 -3.53125 4.039062 -2.878906 4 -2.546875 C 3.976562 -2.398438 3.941406 -2.253906 3.890625 -2.109375 C 3.847656 -1.972656 3.789062 -1.832031 3.71875 -1.6875 C 3.644531 -1.539062 3.550781 -1.394531 3.4375 -1.25 C 3.738281 -1.21875 4.007812 -1.195312 4.25 -1.1875 C 4.5 -1.1875 4.726562 -1.1875 4.9375 -1.1875 C 5.425781 -1.1875 5.785156 -1.195312 6.015625 -1.21875 C 6.253906 -1.25 6.390625 -1.273438 6.421875 -1.296875 C 6.054688 -1.109375 5.707031 -0.9375 5.375 -0.78125 C 5.050781 -0.625 4.738281 -0.484375 4.4375 -0.359375 C 4.132812 -0.242188 3.847656 -0.148438 3.578125 -0.078125 C 3.304688 -0.015625 3.039062 0.015625 2.78125 0.015625 L 0.921875 0.015625 L 1.859375 -0.609375 C 1.910156 -0.796875 1.957031 -1.015625 2 -1.265625 C 2.050781 -1.523438 2.09375 -1.800781 2.125 -2.09375 C 2.15625 -2.394531 2.179688 -2.703125 2.203125 -3.015625 C 2.234375 -3.328125 2.257812 -3.640625 2.28125 -3.953125 C 2.320312 -4.648438 2.351562 -5.394531 2.375 -6.1875 C 2.394531 -7.28125 2.410156 -8.332031 2.421875 -9.34375 C 2.429688 -9.78125 2.4375 -10.226562 2.4375 -10.6875 C 2.445312 -11.144531 2.453125 -11.59375 2.453125 -12.03125 C 2.460938 -12.46875 2.46875 -12.882812 2.46875 -13.28125 C 2.476562 -13.675781 2.484375 -14.023438 2.484375 -14.328125 L 0.5625 -14.1875 L 2.640625 -15.4375 C 2.765625 -15.414062 2.898438 -15.398438 3.046875 -15.390625 C 3.191406 -15.390625 3.34375 -15.390625 3.5 -15.390625 C 3.800781 -15.390625 4.101562 -15.398438 4.40625 -15.421875 C 4.707031 -15.453125 5.003906 -15.484375 5.296875 -15.515625 C 5.597656 -15.546875 5.890625 -15.570312 6.171875 -15.59375 C 6.453125 -15.625 6.738281 -15.640625 7.03125 -15.640625 C 7.601562 -15.640625 8.160156 -15.546875 8.703125 -15.359375 C 9.253906 -15.171875 9.738281 -14.894531 10.15625 -14.53125 C 10.570312 -14.164062 10.894531 -13.722656 11.125 -13.203125 C 11.363281 -12.679688 11.453125 -12.097656 11.390625 -11.453125 Z M 16.1875 -1.5 C 16.164062 -1.5 16.15625 -1.5 16.15625 -1.5 L 16.15625 -1.484375 L 16.15625 -1.5 C 16.164062 -1.5 16.175781 -1.5 16.1875 -1.5 Z M 16.1875 -1.5 "/></g></g></g><g fill="#000000" fill-opacity="1"><g transform="translate(176.690042, 227.709646)"><g><path d="M 15.578125 -8.578125 C 15.578125 -7.691406 15.429688 -6.863281 15.140625 -6.09375 C 14.847656 -5.332031 14.445312 -4.632812 13.9375 -4 C 13.4375 -3.363281 12.851562 -2.796875 12.1875 -2.296875 C 11.519531 -1.804688 10.8125 -1.390625 10.0625 -1.046875 C 9.3125 -0.703125 8.539062 -0.441406 7.75 -0.265625 C 6.96875 -0.0859375 6.207031 0 5.46875 0 C 5.394531 0.0078125 5.265625 0.015625 5.078125 0.015625 C 4.890625 0.015625 4.671875 0.015625 4.421875 0.015625 C 4.171875 0.015625 3.898438 0.015625 3.609375 0.015625 C 3.316406 0.015625 3.03125 0.015625 2.75 0.015625 C 2.476562 0.015625 2.21875 0.015625 1.96875 0.015625 C 1.726562 0.015625 1.53125 0.0078125 1.375 0 C 1.5 0 1.601562 -0.03125 1.6875 -0.09375 C 1.78125 -0.15625 1.859375 -0.238281 1.921875 -0.34375 C 1.992188 -0.457031 2.050781 -0.582031 2.09375 -0.71875 C 2.144531 -0.851562 2.191406 -0.992188 2.234375 -1.140625 C 2.304688 -1.484375 2.347656 -1.867188 2.359375 -2.296875 C 2.359375 -2.816406 2.363281 -3.597656 2.375 -4.640625 C 2.382812 -5.085938 2.390625 -5.609375 2.390625 -6.203125 C 2.398438 -6.804688 2.410156 -7.5 2.421875 -8.28125 C 2.441406 -9.0625 2.460938 -9.9375 2.484375 -10.90625 C 2.503906 -11.882812 2.523438 -12.96875 2.546875 -14.15625 C 2.234375 -14.125 1.921875 -14.097656 1.609375 -14.078125 C 1.296875 -14.066406 0.96875 -14.066406 0.625 -14.078125 L 2.625 -15.390625 C 2.945312 -15.347656 3.28125 -15.316406 3.625 -15.296875 C 3.976562 -15.285156 4.328125 -15.28125 4.671875 -15.28125 C 5.296875 -15.28125 5.875 -15.304688 6.40625 -15.359375 C 6.9375 -15.410156 7.460938 -15.4375 7.984375 -15.4375 C 8.453125 -15.4375 8.960938 -15.394531 9.515625 -15.3125 C 10.078125 -15.238281 10.640625 -15.101562 11.203125 -14.90625 C 11.765625 -14.71875 12.304688 -14.457031 12.828125 -14.125 C 13.359375 -13.800781 13.828125 -13.382812 14.234375 -12.875 C 14.640625 -12.363281 14.960938 -11.753906 15.203125 -11.046875 C 15.453125 -10.335938 15.578125 -9.515625 15.578125 -8.578125 Z M 4.15625 -2.953125 C 4.132812 -2.722656 4.085938 -2.507812 4.015625 -2.3125 C 3.953125 -2.125 3.863281 -1.929688 3.75 -1.734375 C 3.644531 -1.535156 3.5 -1.367188 3.3125 -1.234375 C 4.300781 -1.179688 5.113281 -1.144531 5.75 -1.125 C 6.394531 -1.113281 6.910156 -1.109375 7.296875 -1.109375 C 8.285156 -1.109375 9.171875 -1.285156 9.953125 -1.640625 C 10.734375 -1.992188 11.394531 -2.46875 11.9375 -3.0625 C 12.476562 -3.664062 12.894531 -4.363281 13.1875 -5.15625 C 13.476562 -5.957031 13.625 -6.804688 13.625 -7.703125 C 13.625 -8.578125 13.503906 -9.351562 13.265625 -10.03125 C 13.035156 -10.707031 12.726562 -11.300781 12.34375 -11.8125 C 11.957031 -12.320312 11.519531 -12.75 11.03125 -13.09375 C 10.539062 -13.445312 10.035156 -13.726562 9.515625 -13.9375 C 9.003906 -14.15625 8.492188 -14.3125 7.984375 -14.40625 C 7.484375 -14.507812 7.03125 -14.5625 6.625 -14.5625 C 6.207031 -14.5625 5.816406 -14.546875 5.453125 -14.515625 C 5.085938 -14.484375 4.734375 -14.445312 4.390625 -14.40625 C 4.367188 -13.113281 4.347656 -11.957031 4.328125 -10.9375 C 4.316406 -9.925781 4.300781 -9.03125 4.28125 -8.25 C 4.269531 -7.476562 4.257812 -6.804688 4.25 -6.234375 C 4.238281 -5.671875 4.226562 -5.191406 4.21875 -4.796875 C 4.1875 -3.878906 4.164062 -3.265625 4.15625 -2.953125 Z M 4.15625 -2.953125 "/></g></g></g><g fill="#000000" fill-opacity="1"><g transform="translate(194.726566, 227.709646)"><g><path d="M 16.015625 -8.28125 C 16.015625 -7.375 15.863281 -6.535156 15.5625 -5.765625 C 15.269531 -5.003906 14.878906 -4.304688 14.390625 -3.671875 C 13.898438 -3.035156 13.335938 -2.472656 12.703125 -1.984375 C 12.078125 -1.503906 11.429688 -1.097656 10.765625 -0.765625 C 10.109375 -0.429688 9.460938 -0.175781 8.828125 0 C 8.203125 0.164062 7.632812 0.25 7.125 0.25 C 6.695312 0.25 6.242188 0.179688 5.765625 0.046875 C 5.296875 -0.0859375 4.828125 -0.28125 4.359375 -0.53125 C 3.890625 -0.789062 3.441406 -1.113281 3.015625 -1.5 C 2.585938 -1.894531 2.210938 -2.347656 1.890625 -2.859375 C 1.566406 -3.367188 1.304688 -3.9375 1.109375 -4.5625 C 0.921875 -5.1875 0.828125 -5.875 0.828125 -6.625 C 0.828125 -7.625 0.96875 -8.535156 1.25 -9.359375 C 1.53125 -10.179688 1.898438 -10.921875 2.359375 -11.578125 C 2.816406 -12.242188 3.335938 -12.820312 3.921875 -13.3125 C 4.503906 -13.800781 5.101562 -14.207031 5.71875 -14.53125 C 6.34375 -14.851562 6.953125 -15.09375 7.546875 -15.25 C 8.140625 -15.414062 8.675781 -15.5 9.15625 -15.5 C 9.664062 -15.5 10.1875 -15.441406 10.71875 -15.328125 C 11.25 -15.222656 11.769531 -15.050781 12.28125 -14.8125 C 12.789062 -14.582031 13.269531 -14.28125 13.71875 -13.90625 C 14.175781 -13.539062 14.570312 -13.085938 14.90625 -12.546875 C 15.25 -12.015625 15.519531 -11.394531 15.71875 -10.6875 C 15.914062 -9.976562 16.015625 -9.175781 16.015625 -8.28125 Z M 14.078125 -7.625 C 14.078125 -8.414062 13.976562 -9.128906 13.78125 -9.765625 C 13.59375 -10.398438 13.335938 -10.960938 13.015625 -11.453125 C 12.691406 -11.953125 12.316406 -12.378906 11.890625 -12.734375 C 11.472656 -13.097656 11.035156 -13.394531 10.578125 -13.625 C 10.117188 -13.863281 9.648438 -14.035156 9.171875 -14.140625 C 8.703125 -14.253906 8.257812 -14.3125 7.84375 -14.3125 C 7.175781 -14.3125 6.53125 -14.1875 5.90625 -13.9375 C 5.28125 -13.6875 4.722656 -13.289062 4.234375 -12.75 C 3.742188 -12.207031 3.351562 -11.515625 3.0625 -10.671875 C 2.769531 -9.828125 2.625 -8.8125 2.625 -7.625 C 2.625 -6.84375 2.738281 -6.132812 2.96875 -5.5 C 3.195312 -4.875 3.492188 -4.320312 3.859375 -3.84375 C 4.234375 -3.363281 4.648438 -2.953125 5.109375 -2.609375 C 5.578125 -2.273438 6.050781 -2 6.53125 -1.78125 C 7.019531 -1.570312 7.488281 -1.414062 7.9375 -1.3125 C 8.382812 -1.207031 8.773438 -1.15625 9.109375 -1.15625 C 9.441406 -1.15625 9.796875 -1.207031 10.171875 -1.3125 C 10.546875 -1.414062 10.914062 -1.570312 11.28125 -1.78125 C 11.65625 -2 12.007812 -2.28125 12.34375 -2.625 C 12.675781 -2.96875 12.972656 -3.375 13.234375 -3.84375 C 13.492188 -4.320312 13.695312 -4.875 13.84375 -5.5 C 14 -6.132812 14.078125 -6.84375 14.078125 -7.625 Z M 14.078125 -7.625 "/></g></g></g><g fill="#000000" fill-opacity="1"><g transform="translate(213.200762, 227.709646)"><g/></g></g><g fill="#000000" fill-opacity="1"><g transform="translate(220.284786, 227.709646)"><g><path d="M 15.578125 -8.578125 C 15.578125 -7.691406 15.429688 -6.863281 15.140625 -6.09375 C 14.847656 -5.332031 14.445312 -4.632812 13.9375 -4 C 13.4375 -3.363281 12.851562 -2.796875 12.1875 -2.296875 C 11.519531 -1.804688 10.8125 -1.390625 10.0625 -1.046875 C 9.3125 -0.703125 8.539062 -0.441406 7.75 -0.265625 C 6.96875 -0.0859375 6.207031 0 5.46875 0 C 5.394531 0.0078125 5.265625 0.015625 5.078125 0.015625 C 4.890625 0.015625 4.671875 0.015625 4.421875 0.015625 C 4.171875 0.015625 3.898438 0.015625 3.609375 0.015625 C 3.316406 0.015625 3.03125 0.015625 2.75 0.015625 C 2.476562 0.015625 2.21875 0.015625 1.96875 0.015625 C 1.726562 0.015625 1.53125 0.0078125 1.375 0 C 1.5 0 1.601562 -0.03125 1.6875 -0.09375 C 1.78125 -0.15625 1.859375 -0.238281 1.921875 -0.34375 C 1.992188 -0.457031 2.050781 -0.582031 2.09375 -0.71875 C 2.144531 -0.851562 2.191406 -0.992188 2.234375 -1.140625 C 2.304688 -1.484375 2.347656 -1.867188 2.359375 -2.296875 C 2.359375 -2.816406 2.363281 -3.597656 2.375 -4.640625 C 2.382812 -5.085938 2.390625 -5.609375 2.390625 -6.203125 C 2.398438 -6.804688 2.410156 -7.5 2.421875 -8.28125 C 2.441406 -9.0625 2.460938 -9.9375 2.484375 -10.90625 C 2.503906 -11.882812 2.523438 -12.96875 2.546875 -14.15625 C 2.234375 -14.125 1.921875 -14.097656 1.609375 -14.078125 C 1.296875 -14.066406 0.96875 -14.066406 0.625 -14.078125 L 2.625 -15.390625 C 2.945312 -15.347656 3.28125 -15.316406 3.625 -15.296875 C 3.976562 -15.285156 4.328125 -15.28125 4.671875 -15.28125 C 5.296875 -15.28125 5.875 -15.304688 6.40625 -15.359375 C 6.9375 -15.410156 7.460938 -15.4375 7.984375 -15.4375 C 8.453125 -15.4375 8.960938 -15.394531 9.515625 -15.3125 C 10.078125 -15.238281 10.640625 -15.101562 11.203125 -14.90625 C 11.765625 -14.71875 12.304688 -14.457031 12.828125 -14.125 C 13.359375 -13.800781 13.828125 -13.382812 14.234375 -12.875 C 14.640625 -12.363281 14.960938 -11.753906 15.203125 -11.046875 C 15.453125 -10.335938 15.578125 -9.515625 15.578125 -8.578125 Z M 4.15625 -2.953125 C 4.132812 -2.722656 4.085938 -2.507812 4.015625 -2.3125 C 3.953125 -2.125 3.863281 -1.929688 3.75 -1.734375 C 3.644531 -1.535156 3.5 -1.367188 3.3125 -1.234375 C 4.300781 -1.179688 5.113281 -1.144531 5.75 -1.125 C 6.394531 -1.113281 6.910156 -1.109375 7.296875 -1.109375 C 8.285156 -1.109375 9.171875 -1.285156 9.953125 -1.640625 C 10.734375 -1.992188 11.394531 -2.46875 11.9375 -3.0625 C 12.476562 -3.664062 12.894531 -4.363281 13.1875 -5.15625 C 13.476562 -5.957031 13.625 -6.804688 13.625 -7.703125 C 13.625 -8.578125 13.503906 -9.351562 13.265625 -10.03125 C 13.035156 -10.707031 12.726562 -11.300781 12.34375 -11.8125 C 11.957031 -12.320312 11.519531 -12.75 11.03125 -13.09375 C 10.539062 -13.445312 10.035156 -13.726562 9.515625 -13.9375 C 9.003906 -14.15625 8.492188 -14.3125 7.984375 -14.40625 C 7.484375 -14.507812 7.03125 -14.5625 6.625 -14.5625 C 6.207031 -14.5625 5.816406 -14.546875 5.453125 -14.515625 C 5.085938 -14.484375 4.734375 -14.445312 4.390625 -14.40625 C 4.367188 -13.113281 4.347656 -11.957031 4.328125 -10.9375 C 4.316406 -9.925781 4.300781 -9.03125 4.28125 -8.25 C 4.269531 -7.476562 4.257812 -6.804688 4.25 -6.234375 C 4.238281 -5.671875 4.226562 -5.191406 4.21875 -4.796875 C 4.1875 -3.878906 4.164062 -3.265625 4.15625 -2.953125 Z M 4.15625 -2.953125 "/></g></g></g><g fill="#000000" fill-opacity="1"><g transform="translate(238.32131, 227.709646)"><g><path d="M 9.375 -8.375 C 9.3125 -8.34375 9.21875 -8.285156 9.09375 -8.203125 C 8.976562 -8.128906 8.816406 -8.023438 8.609375 -7.890625 C 8.398438 -7.753906 8.125 -7.566406 7.78125 -7.328125 C 7.832031 -7.429688 7.828125 -7.507812 7.765625 -7.5625 C 7.710938 -7.625 7.632812 -7.664062 7.53125 -7.6875 C 7.414062 -7.71875 7.273438 -7.726562 7.109375 -7.71875 C 6.847656 -7.695312 6.476562 -7.671875 6 -7.640625 C 5.519531 -7.609375 4.976562 -7.582031 4.375 -7.5625 C 4.375 -6.425781 4.363281 -5.5 4.34375 -4.78125 C 4.332031 -4.070312 4.328125 -3.515625 4.328125 -3.109375 C 4.304688 -2.640625 4.289062 -2.296875 4.28125 -2.078125 C 4.269531 -1.941406 4.226562 -1.804688 4.15625 -1.671875 C 4.09375 -1.546875 4 -1.414062 3.875 -1.28125 C 3.75 -1.144531 3.578125 -1.023438 3.359375 -0.921875 L 8.203125 -0.921875 C 8.421875 -0.921875 8.648438 -0.929688 8.890625 -0.953125 C 9.085938 -0.984375 9.300781 -1.019531 9.53125 -1.0625 C 9.757812 -1.113281 9.976562 -1.191406 10.1875 -1.296875 C 9.832031 -0.960938 9.476562 -0.703125 9.125 -0.515625 C 8.78125 -0.335938 8.460938 -0.210938 8.171875 -0.140625 C 7.828125 -0.046875 7.5 0.00390625 7.1875 0.015625 C 6.488281 0.015625 5.832031 0.0195312 5.21875 0.03125 C 4.601562 0.0390625 4.046875 0.0546875 3.546875 0.078125 C 3.046875 0.0976562 2.617188 0.125 2.265625 0.15625 C 1.910156 0.1875 1.65625 0.222656 1.5 0.265625 C 1.71875 0.046875 1.890625 -0.164062 2.015625 -0.375 C 2.140625 -0.59375 2.234375 -0.832031 2.296875 -1.09375 C 2.367188 -1.363281 2.410156 -1.660156 2.421875 -1.984375 C 2.441406 -2.316406 2.445312 -2.710938 2.4375 -3.171875 L 2.4375 -7.546875 C 2.238281 -7.546875 2.039062 -7.546875 1.84375 -7.546875 C 1.644531 -7.554688 1.453125 -7.570312 1.265625 -7.59375 L 2.4375 -8.203125 C 2.4375 -8.585938 2.4375 -8.988281 2.4375 -9.40625 C 2.4375 -9.832031 2.4375 -10.285156 2.4375 -10.765625 C 2.4375 -11.253906 2.429688 -11.773438 2.421875 -12.328125 C 2.421875 -12.890625 2.421875 -13.5 2.421875 -14.15625 C 2.097656 -14.15625 1.796875 -14.160156 1.515625 -14.171875 C 1.234375 -14.179688 0.96875 -14.191406 0.71875 -14.203125 L 2.71875 -15.265625 C 4.0625 -15.265625 5.210938 -15.269531 6.171875 -15.28125 C 7.128906 -15.300781 7.921875 -15.320312 8.546875 -15.34375 C 9.273438 -15.375 9.878906 -15.40625 10.359375 -15.4375 C 10.609375 -15.4375 10.769531 -15.414062 10.84375 -15.375 C 10.925781 -15.332031 10.957031 -15.285156 10.9375 -15.234375 C 10.925781 -15.191406 10.882812 -15.144531 10.8125 -15.09375 C 10.738281 -15.050781 10.675781 -15.019531 10.625 -15 C 10.5625 -14.96875 10.453125 -14.90625 10.296875 -14.8125 C 10.160156 -14.738281 9.96875 -14.617188 9.71875 -14.453125 C 9.476562 -14.285156 9.144531 -14.054688 8.71875 -13.765625 C 8.863281 -13.921875 8.925781 -14.035156 8.90625 -14.109375 C 8.882812 -14.191406 8.832031 -14.25 8.75 -14.28125 C 8.65625 -14.3125 8.53125 -14.328125 8.375 -14.328125 C 8.238281 -14.316406 8.035156 -14.304688 7.765625 -14.296875 C 7.492188 -14.285156 7.175781 -14.269531 6.8125 -14.25 C 6.457031 -14.238281 6.066406 -14.226562 5.640625 -14.21875 C 5.222656 -14.207031 4.796875 -14.195312 4.359375 -14.1875 C 4.359375 -13.050781 4.359375 -12.03125 4.359375 -11.125 C 4.367188 -10.21875 4.375 -9.390625 4.375 -8.640625 C 5.101562 -8.640625 5.753906 -8.648438 6.328125 -8.671875 C 6.910156 -8.691406 7.410156 -8.710938 7.828125 -8.734375 C 8.304688 -8.765625 8.734375 -8.789062 9.109375 -8.8125 C 9.347656 -8.8125 9.503906 -8.789062 9.578125 -8.75 C 9.660156 -8.71875 9.691406 -8.675781 9.671875 -8.625 C 9.660156 -8.582031 9.617188 -8.535156 9.546875 -8.484375 C 9.484375 -8.429688 9.425781 -8.394531 9.375 -8.375 Z M 9.375 -8.375 "/></g></g></g><g fill="#000000" fill-opacity="1"><g transform="translate(251.137782, 227.709646)"><g><path d="M 6.453125 -1.375 C 6.066406 -1.125 5.75 -0.90625 5.5 -0.71875 C 5.25 -0.53125 5.019531 -0.375 4.8125 -0.25 C 4.613281 -0.132812 4.421875 -0.0507812 4.234375 0 C 4.046875 0.0507812 3.820312 0.078125 3.5625 0.078125 C 3.21875 0.078125 2.925781 0.0625 2.6875 0.03125 C 2.445312 0.0078125 2.207031 0 1.96875 0 C 1.84375 0 1.71875 0.00390625 1.59375 0.015625 C 1.46875 0.0234375 1.332031 0.046875 1.1875 0.078125 C 1.382812 -0.0859375 1.5625 -0.269531 1.71875 -0.46875 C 1.882812 -0.664062 2.023438 -0.910156 2.140625 -1.203125 C 2.265625 -1.492188 2.359375 -1.84375 2.421875 -2.25 C 2.484375 -2.664062 2.515625 -3.160156 2.515625 -3.734375 L 2.515625 -14.515625 C 2.296875 -14.492188 2.03125 -14.460938 1.71875 -14.421875 C 1.40625 -14.390625 1.050781 -14.347656 0.65625 -14.296875 C 1.039062 -14.609375 1.382812 -14.84375 1.6875 -15 C 2 -15.164062 2.265625 -15.289062 2.484375 -15.375 C 2.742188 -15.457031 2.972656 -15.503906 3.171875 -15.515625 C 3.421875 -15.515625 3.695312 -15.519531 4 -15.53125 C 4.300781 -15.539062 4.59375 -15.554688 4.875 -15.578125 C 5.15625 -15.609375 5.410156 -15.644531 5.640625 -15.6875 C 5.878906 -15.726562 6.054688 -15.769531 6.171875 -15.8125 C 5.835938 -15.59375 5.535156 -15.40625 5.265625 -15.25 C 4.992188 -15.09375 4.738281 -14.96875 4.5 -14.875 C 4.46875 -13.582031 4.4375 -12.425781 4.40625 -11.40625 C 4.382812 -10.394531 4.363281 -9.492188 4.34375 -8.703125 C 4.332031 -7.921875 4.320312 -7.242188 4.3125 -6.671875 C 4.300781 -6.097656 4.289062 -5.609375 4.28125 -5.203125 C 4.257812 -4.253906 4.253906 -3.601562 4.265625 -3.25 C 4.253906 -2.988281 4.21875 -2.726562 4.15625 -2.46875 C 4.09375 -2.25 4.003906 -2.007812 3.890625 -1.75 C 3.773438 -1.5 3.613281 -1.269531 3.40625 -1.0625 C 3.539062 -1.050781 3.671875 -1.046875 3.796875 -1.046875 C 3.921875 -1.046875 4.046875 -1.046875 4.171875 -1.046875 C 4.535156 -1.046875 4.859375 -1.0625 5.140625 -1.09375 C 5.421875 -1.125 5.65625 -1.160156 5.84375 -1.203125 C 6.070312 -1.253906 6.273438 -1.3125 6.453125 -1.375 Z M 6.453125 -1.375 "/></g></g></g><g fill="#000000" fill-opacity="1"><g transform="translate(259.598875, 227.709646)"><g><path d="M 3.078125 -1.96875 C 3.066406 -1.90625 3.035156 -1.828125 2.984375 -1.734375 C 2.941406 -1.660156 2.878906 -1.5625 2.796875 -1.4375 C 2.722656 -1.320312 2.617188 -1.1875 2.484375 -1.03125 C 2.691406 -0.976562 2.898438 -0.945312 3.109375 -0.9375 C 3.316406 -0.925781 3.507812 -0.921875 3.6875 -0.921875 C 4.050781 -0.921875 4.34375 -0.929688 4.5625 -0.953125 C 4.789062 -0.984375 4.925781 -1.007812 4.96875 -1.03125 C 4.632812 -0.875 4.351562 -0.726562 4.125 -0.59375 C 3.90625 -0.457031 3.679688 -0.335938 3.453125 -0.234375 C 3.222656 -0.128906 2.957031 -0.046875 2.65625 0.015625 C 2.363281 0.0859375 1.972656 0.132812 1.484375 0.15625 C 1.515625 0.132812 1.5625 0.078125 1.625 -0.015625 L 1.421875 0.15625 C 1.316406 0.164062 1.210938 0.171875 1.109375 0.171875 C 1.003906 0.171875 0.898438 0.171875 0.796875 0.171875 L 1.765625 -0.5625 C 1.796875 -0.738281 1.828125 -0.929688 1.859375 -1.140625 C 1.890625 -1.359375 1.914062 -1.582031 1.9375 -1.8125 C 1.957031 -2.050781 1.976562 -2.289062 2 -2.53125 C 2.019531 -2.769531 2.035156 -3.003906 2.046875 -3.234375 C 2.085938 -3.765625 2.117188 -4.304688 2.140625 -4.859375 C 2.179688 -6.472656 2.207031 -8.0625 2.21875 -9.625 C 2.238281 -11.1875 2.25 -12.753906 2.25 -14.328125 L 3.4375 -16.25 C 3.476562 -15.5625 3.609375 -14.898438 3.828125 -14.265625 C 4.046875 -13.640625 4.332031 -13.023438 4.6875 -12.421875 C 5.050781 -11.828125 5.457031 -11.253906 5.90625 -10.703125 C 6.363281 -10.160156 6.847656 -9.625 7.359375 -9.09375 C 7.878906 -8.5625 8.40625 -8.039062 8.9375 -7.53125 C 9.46875 -7.03125 9.984375 -6.535156 10.484375 -6.046875 C 10.992188 -5.554688 11.472656 -5.066406 11.921875 -4.578125 C 12.378906 -4.085938 12.78125 -3.597656 13.125 -3.109375 C 13.226562 -4.648438 13.296875 -6.15625 13.328125 -7.625 C 13.359375 -9.09375 13.375 -10.554688 13.375 -12.015625 C 13.375 -12.671875 13.351562 -13.1875 13.3125 -13.5625 C 13.28125 -13.9375 13.226562 -14.25 13.15625 -14.5 C 13.070312 -14.476562 12.984375 -14.46875 12.890625 -14.46875 C 12.796875 -14.46875 12.695312 -14.46875 12.59375 -14.46875 C 12.34375 -14.46875 12.101562 -14.460938 11.875 -14.453125 C 11.644531 -14.441406 11.453125 -14.398438 11.296875 -14.328125 C 11.566406 -14.515625 11.828125 -14.6875 12.078125 -14.84375 C 12.328125 -15 12.578125 -15.128906 12.828125 -15.234375 C 13.078125 -15.347656 13.332031 -15.4375 13.59375 -15.5 C 13.851562 -15.570312 14.132812 -15.609375 14.4375 -15.609375 C 14.59375 -15.609375 14.769531 -15.601562 14.96875 -15.59375 C 15.175781 -15.582031 15.398438 -15.554688 15.640625 -15.515625 C 15.453125 -15.398438 15.269531 -15.289062 15.09375 -15.1875 C 14.925781 -15.09375 14.757812 -15.007812 14.59375 -14.9375 C 14.582031 -12.757812 14.519531 -10.617188 14.40625 -8.515625 C 14.300781 -6.410156 14.195312 -4.304688 14.09375 -2.203125 C 13.664062 -1.503906 13.359375 -0.929688 13.171875 -0.484375 C 12.984375 -0.0351562 12.875 0.234375 12.84375 0.328125 L 12.84375 0.375 C 12.519531 -0.363281 12.117188 -1.050781 11.640625 -1.6875 C 11.171875 -2.332031 10.648438 -2.945312 10.078125 -3.53125 C 9.515625 -4.113281 8.925781 -4.679688 8.3125 -5.234375 C 7.695312 -5.796875 7.09375 -6.363281 6.5 -6.9375 C 5.914062 -7.519531 5.359375 -8.125 4.828125 -8.75 C 4.296875 -9.382812 3.832031 -10.066406 3.4375 -10.796875 C 3.425781 -10.179688 3.414062 -9.5625 3.40625 -8.9375 C 3.394531 -8.320312 3.378906 -7.71875 3.359375 -7.125 C 3.347656 -6.539062 3.332031 -5.976562 3.3125 -5.4375 C 3.289062 -4.894531 3.269531 -4.398438 3.25 -3.953125 C 3.226562 -3.503906 3.203125 -3.109375 3.171875 -2.765625 C 3.140625 -2.421875 3.109375 -2.15625 3.078125 -1.96875 Z M 1.484375 0.15625 C 1.472656 0.164062 1.453125 0.171875 1.421875 0.171875 L 1.421875 0.15625 Z M 1.484375 0.15625 "/></g></g></g><g fill="#000000" fill-opacity="1"><g transform="translate(277.656736, 227.709646)"><g><path d="M 4.265625 -1.109375 C 3.878906 -0.898438 3.515625 -0.722656 3.171875 -0.578125 C 2.828125 -0.429688 2.503906 -0.316406 2.203125 -0.234375 C 1.910156 -0.148438 1.644531 -0.0859375 1.40625 -0.046875 C 1.164062 -0.015625 0.960938 0 0.796875 0 L -0.8125 0 L 0.359375 -0.65625 C 0.472656 -0.8125 0.585938 -0.96875 0.703125 -1.125 C 0.816406 -1.28125 0.914062 -1.425781 1 -1.5625 C 1.082031 -1.707031 1.164062 -1.851562 1.25 -2 C 1.46875 -2.445312 1.796875 -3.175781 2.234375 -4.1875 C 2.410156 -4.613281 2.617188 -5.117188 2.859375 -5.703125 C 3.109375 -6.296875 3.390625 -6.984375 3.703125 -7.765625 C 4.023438 -8.546875 4.382812 -9.4375 4.78125 -10.4375 C 5.175781 -11.4375 5.613281 -12.554688 6.09375 -13.796875 L 7.953125 -15.5 L 12.140625 -1.3125 C 12.429688 -1.238281 12.710938 -1.1875 12.984375 -1.15625 C 13.265625 -1.132812 13.523438 -1.125 13.765625 -1.125 C 13.898438 -1.125 14.019531 -1.125 14.125 -1.125 C 14.226562 -1.132812 14.320312 -1.144531 14.40625 -1.15625 C 14.488281 -1.15625 14.566406 -1.164062 14.640625 -1.1875 C 14.234375 -0.988281 13.875 -0.816406 13.5625 -0.671875 C 13.257812 -0.523438 12.988281 -0.398438 12.75 -0.296875 C 12.507812 -0.203125 12.285156 -0.128906 12.078125 -0.078125 C 11.878906 -0.0234375 11.675781 0 11.46875 0 L 9.765625 0 L 10.328125 -0.359375 L 8.609375 -6.015625 C 8.398438 -5.953125 8.160156 -5.894531 7.890625 -5.84375 C 7.628906 -5.789062 7.3125 -5.742188 6.9375 -5.703125 C 6.5625 -5.660156 6.125 -5.617188 5.625 -5.578125 C 5.132812 -5.546875 4.566406 -5.515625 3.921875 -5.484375 C 3.617188 -4.847656 3.34375 -4.285156 3.09375 -3.796875 C 2.84375 -3.304688 2.617188 -2.878906 2.421875 -2.515625 C 2.222656 -2.148438 2.046875 -1.84375 1.890625 -1.59375 C 1.742188 -1.351562 1.613281 -1.15625 1.5 -1 C 1.625 -0.976562 1.757812 -0.960938 1.90625 -0.953125 C 2.0625 -0.941406 2.210938 -0.9375 2.359375 -0.9375 C 2.585938 -0.9375 2.8125 -0.945312 3.03125 -0.96875 C 3.257812 -0.988281 3.46875 -1.007812 3.65625 -1.03125 C 3.863281 -1.050781 4.066406 -1.078125 4.265625 -1.109375 Z M 5.75 -6.75 C 6.707031 -6.75 7.582031 -6.773438 8.375 -6.828125 L 6.734375 -12.25 C 6.296875 -11.113281 5.890625 -10.097656 5.515625 -9.203125 C 5.148438 -8.316406 4.804688 -7.5 4.484375 -6.75 Z M 5.75 -6.75 "/></g></g></g></svg>